<?xml version="1.0" standalone="no"?>
<!DOCTYPE svg PUBLIC "-//W3C//DTD SVG 1.1//EN" "http://www.w3.org/Graphics/SVG/1.1/DTD/svg11.dtd">
<svg width="800" height="600" version="1.1" xmlns="http://www.w3.org/2000/svg">
<rect width="800" height="600" x="0" y="0" style="fill:rgb(238,238,238);stroke:none"/>
<rect width="800" height="600" x="0" y="0" style="fill:rgb(255,255,255);stroke:none"/>
<text x="2" y="566" fill="rgb(0,0,0)" font-family="Arial" font-size="12">0</text>
<text x="2" y="514" fill="rgb(0,0,0)" font-family="Arial" font-size="12">2000000</text>
<text x="2" y="461" fill="rgb(0,0,0)" font-family="Arial" font-size="12">4000000</text>
<text x="2" y="409" fill="rgb(0,0,0)" font-family="Arial" font-size="12">6000000</text>
<text x="2" y="356" fill="rgb(0,0,0)" font-family="Arial" font-size="12">8000000</text>
<text x="2" y="304" fill="rgb(0,0,0)" font-family="Arial" font-size="12">1.0E7</text>
<text x="2" y="251" fill="rgb(0,0,0)" font-family="Arial" font-size="12">1.2E7</text>
<text x="2" y="199" fill="rgb(0,0,0)" font-family="Arial" font-size="12">1.4E7</text>
<text x="2" y="146" fill="rgb(0,0,0)" font-family="Arial" font-size="12">1.6E7</text>
<text x="2" y="93" fill="rgb(0,0,0)" font-family="Arial" font-size="12">1.8E7</text>
<text x="286" y="30" fill="rgb(0,0,0)" font-family="Arial" font-size="12">Quality score distribution over all sequences</text>
<line x1="61" y1="560" x2="790" y2="560" stroke="rgb(0,0,0)" stroke-width="1"/>
<line x1="61" y1="560" x2="61" y2="40" stroke="rgb(0,0,0)" stroke-width="1"/>
<text x="281" y="595" fill="rgb(0,0,0)" font-family="Arial" font-size="12">Mean Sequence Quality (Phred Score)</text>
<text x="66" y="575" fill="rgb(0,0,0)" font-family="Arial" font-size="12">11</text>
<rect width="27" height="520" x="88" y="40" style="fill:rgb(230,230,230);stroke:none"/>
<text x="93" y="575" fill="rgb(0,0,0)" font-family="Arial" font-size="12">12</text>
<text x="120" y="575" fill="rgb(0,0,0)" font-family="Arial" font-size="12">13</text>
<rect width="27" height="520" x="142" y="40" style="fill:rgb(230,230,230);stroke:none"/>
<text x="147" y="575" fill="rgb(0,0,0)" font-family="Arial" font-size="12">14</text>
<text x="174" y="575" fill="rgb(0,0,0)" font-family="Arial" font-size="12">15</text>
<rect width="27" height="520" x="196" y="40" style="fill:rgb(230,230,230);stroke:none"/>
<text x="201" y="575" fill="rgb(0,0,0)" font-family="Arial" font-size="12">16</text>
<text x="228" y="575" fill="rgb(0,0,0)" font-family="Arial" font-size="12">17</text>
<rect width="27" height="520" x="250" y="40" style="fill:rgb(230,230,230);stroke:none"/>
<text x="255" y="575" fill="rgb(0,0,0)" font-family="Arial" font-size="12">18</text>
<text x="282" y="575" fill="rgb(0,0,0)" font-family="Arial" font-size="12">19</text>
<rect width="27" height="520" x="304" y="40" style="fill:rgb(230,230,230);stroke:none"/>
<text x="309" y="575" fill="rgb(0,0,0)" font-family="Arial" font-size="12">20</text>
<text x="336" y="575" fill="rgb(0,0,0)" font-family="Arial" font-size="12">21</text>
<rect width="27" height="520" x="358" y="40" style="fill:rgb(230,230,230);stroke:none"/>
<text x="363" y="575" fill="rgb(0,0,0)" font-family="Arial" font-size="12">22</text>
<text x="390" y="575" fill="rgb(0,0,0)" font-family="Arial" font-size="12">23</text>
<rect width="27" height="520" x="412" y="40" style="fill:rgb(230,230,230);stroke:none"/>
<text x="417" y="575" fill="rgb(0,0,0)" font-family="Arial" font-size="12">24</text>
<text x="444" y="575" fill="rgb(0,0,0)" font-family="Arial" font-size="12">25</text>
<rect width="27" height="520" x="466" y="40" style="fill:rgb(230,230,230);stroke:none"/>
<text x="471" y="575" fill="rgb(0,0,0)" font-family="Arial" font-size="12">26</text>
<text x="498" y="575" fill="rgb(0,0,0)" font-family="Arial" font-size="12">27</text>
<rect width="27" height="520" x="520" y="40" style="fill:rgb(230,230,230);stroke:none"/>
<text x="525" y="575" fill="rgb(0,0,0)" font-family="Arial" font-size="12">28</text>
<text x="552" y="575" fill="rgb(0,0,0)" font-family="Arial" font-size="12">29</text>
<rect width="27" height="520" x="574" y="40" style="fill:rgb(230,230,230);stroke:none"/>
<text x="579" y="575" fill="rgb(0,0,0)" font-family="Arial" font-size="12">30</text>
<text x="606" y="575" fill="rgb(0,0,0)" font-family="Arial" font-size="12">31</text>
<rect width="27" height="520" x="628" y="40" style="fill:rgb(230,230,230);stroke:none"/>
<text x="633" y="575" fill="rgb(0,0,0)" font-family="Arial" font-size="12">32</text>
<text x="660" y="575" fill="rgb(0,0,0)" font-family="Arial" font-size="12">33</text>
<rect width="27" height="520" x="682" y="40" style="fill:rgb(230,230,230);stroke:none"/>
<text x="687" y="575" fill="rgb(0,0,0)" font-family="Arial" font-size="12">34</text>
<text x="714" y="575" fill="rgb(0,0,0)" font-family="Arial" font-size="12">35</text>
<rect width="27" height="520" x="736" y="40" style="fill:rgb(230,230,230);stroke:none"/>
<text x="741" y="575" fill="rgb(0,0,0)" font-family="Arial" font-size="12">36</text>
<text x="768" y="575" fill="rgb(0,0,0)" font-family="Arial" font-size="12">37</text>
<line x1="61" y1="560" x2="790" y2="560" stroke="rgb(180,180,180)" stroke-width="1"/>
<line x1="61" y1="508" x2="790" y2="508" stroke="rgb(180,180,180)" stroke-width="1"/>
<line x1="61" y1="455" x2="790" y2="455" stroke="rgb(180,180,180)" stroke-width="1"/>
<line x1="61" y1="403" x2="790" y2="403" stroke="rgb(180,180,180)" stroke-width="1"/>
<line x1="61" y1="350" x2="790" y2="350" stroke="rgb(180,180,180)" stroke-width="1"/>
<line x1="61" y1="298" x2="790" y2="298" stroke="rgb(180,180,180)" stroke-width="1"/>
<line x1="61" y1="245" x2="790" y2="245" stroke="rgb(180,180,180)" stroke-width="1"/>
<line x1="61" y1="193" x2="790" y2="193" stroke="rgb(180,180,180)" stroke-width="1"/>
<line x1="61" y1="140" x2="790" y2="140" stroke="rgb(180,180,180)" stroke-width="1"/>
<line x1="61" y1="87" x2="790" y2="87" stroke="rgb(180,180,180)" stroke-width="1"/>
<line x1="74" y1="560" x2="101" y2="560" stroke="rgb(136,34,85)" stroke-width="1"/>
<line x1="101" y1="560" x2="128" y2="560" stroke="rgb(136,34,85)" stroke-width="1"/>
<line x1="128" y1="560" x2="155" y2="560" stroke="rgb(136,34,85)" stroke-width="1"/>
<line x1="155" y1="560" x2="182" y2="560" stroke="rgb(136,34,85)" stroke-width="1"/>
<line x1="182" y1="560" x2="209" y2="560" stroke="rgb(136,34,85)" stroke-width="1"/>
<line x1="209" y1="560" x2="236" y2="560" stroke="rgb(136,34,85)" stroke-width="1"/>
<line x1="236" y1="560" x2="263" y2="560" stroke="rgb(136,34,85)" stroke-width="1"/>
<line x1="263" y1="560" x2="290" y2="560" stroke="rgb(136,34,85)" stroke-width="1"/>
<line x1="290" y1="560" x2="317" y2="560" stroke="rgb(136,34,85)" stroke-width="1"/>
<line x1="317" y1="560" x2="344" y2="560" stroke="rgb(136,34,85)" stroke-width="1"/>
<line x1="344" y1="560" x2="371" y2="559" stroke="rgb(136,34,85)" stroke-width="1"/>
<line x1="371" y1="559" x2="398" y2="559" stroke="rgb(136,34,85)" stroke-width="1"/>
<line x1="398" y1="559" x2="425" y2="559" stroke="rgb(136,34,85)" stroke-width="1"/>
<line x1="425" y1="559" x2="452" y2="558" stroke="rgb(136,34,85)" stroke-width="1"/>
<line x1="452" y1="558" x2="479" y2="558" stroke="rgb(136,34,85)" stroke-width="1"/>
<line x1="479" y1="558" x2="506" y2="557" stroke="rgb(136,34,85)" stroke-width="1"/>
<line x1="506" y1="557" x2="533" y2="556" stroke="rgb(136,34,85)" stroke-width="1"/>
<line x1="533" y1="556" x2="560" y2="555" stroke="rgb(136,34,85)" stroke-width="1"/>
<line x1="560" y1="555" x2="587" y2="553" stroke="rgb(136,34,85)" stroke-width="1"/>
<line x1="587" y1="553" x2="614" y2="550" stroke="rgb(136,34,85)" stroke-width="1"/>
<line x1="614" y1="550" x2="641" y2="544" stroke="rgb(136,34,85)" stroke-width="1"/>
<line x1="641" y1="544" x2="668" y2="533" stroke="rgb(136,34,85)" stroke-width="1"/>
<line x1="668" y1="533" x2="695" y2="502" stroke="rgb(136,34,85)" stroke-width="1"/>
<line x1="695" y1="502" x2="722" y2="442" stroke="rgb(136,34,85)" stroke-width="1"/>
<line x1="722" y1="442" x2="749" y2="40" stroke="rgb(136,34,85)" stroke-width="1"/>
<line x1="749" y1="40" x2="776" y2="507" stroke="rgb(136,34,85)" stroke-width="1"/>
<rect width="183" height="23" x="607" y="40" style="fill:rgb(255,255,255);stroke:none"/>
<rect width="183" height="23" x="607" y="40" rx="0" ry="0" style="fill:none;stroke-width:1;stroke:rgb(192,192,192)"/>
<text x="610" y="55" fill="rgb(136,34,85)" font-family="Arial" font-size="12" font-weight="bold">Average Quality per read</text>
</svg>
